<mxfile host="65bd71144e" modified="2021-01-11T08:17:03.827Z" agent="5.0 (Macintosh; Intel Mac OS X 10_15_6) AppleWebKit/537.36 (KHTML, like Gecko) Code/1.52.1 Chrome/83.0.4103.122 Electron/9.3.5 Safari/537.36" version="13.10.0" etag="Q72kRR4IR1Qi0gocZRuM" type="embed">
    <diagram id="pCN76JeKTN9yhabFUj8s" name="Page-1">
        <mxGraphModel dx="1762" dy="964" grid="1" gridSize="10" guides="1" tooltips="1" connect="1" arrows="1" fold="1" page="1" pageScale="1" pageWidth="850" pageHeight="1100" math="0" shadow="0">
            <root>
                <mxCell id="0"/>
                <mxCell id="1" parent="0"/>
                <mxCell id="2" value="versionId" style="rounded=0;whiteSpace=wrap;html=1;fontSize=14;fillColor=#e51400;strokeColor=#B20000;fontColor=#ffffff;fontStyle=1" vertex="1" parent="1">
                    <mxGeometry x="100" y="450" width="90" height="60" as="geometry"/>
                </mxCell>
                <mxCell id="3" value="correlationId" style="rounded=0;whiteSpace=wrap;html=1;fontSize=14;fillColor=#fa6800;strokeColor=#C73500;fontColor=#ffffff;fontStyle=1" vertex="1" parent="1">
                    <mxGeometry x="190" y="450" width="160" height="60" as="geometry"/>
                </mxCell>
                <mxCell id="4" value="clientId" style="rounded=0;whiteSpace=wrap;html=1;fontSize=14;fillColor=#f0a30a;strokeColor=#BD7000;fontColor=#ffffff;fontStyle=1" vertex="1" parent="1">
                    <mxGeometry x="350" y="450" width="160" height="60" as="geometry"/>
                </mxCell>
                <mxCell id="6" value="topic1" style="rounded=0;whiteSpace=wrap;html=1;fontSize=14;fillColor=#60a917;strokeColor=#2D7600;fontColor=#ffffff;fontStyle=1" vertex="1" parent="1">
                    <mxGeometry x="930" y="450" width="120" height="60" as="geometry"/>
                </mxCell>
                <mxCell id="8" value="......" style="rounded=0;whiteSpace=wrap;html=1;fontSize=14;fillColor=#60a917;strokeColor=#2D7600;fontColor=#ffffff;fontStyle=1" vertex="1" parent="1">
                    <mxGeometry x="1050" y="450" width="120" height="60" as="geometry"/>
                </mxCell>
                <mxCell id="9" value="topicN" style="rounded=0;whiteSpace=wrap;html=1;fontSize=14;fillColor=#60a917;strokeColor=#2D7600;fontColor=#ffffff;fontStyle=1" vertex="1" parent="1">
                    <mxGeometry x="1170" y="450" width="120" height="60" as="geometry"/>
                </mxCell>
                <mxCell id="10" value="short" style="text;html=1;strokeColor=none;fillColor=none;align=center;verticalAlign=middle;whiteSpace=wrap;rounded=0;fontSize=14;fontStyle=1;fontColor=#006666;" vertex="1" parent="1">
                    <mxGeometry x="130" y="428" width="40" height="20" as="geometry"/>
                </mxCell>
                <mxCell id="11" value="int" style="text;html=1;strokeColor=none;fillColor=none;align=center;verticalAlign=middle;whiteSpace=wrap;rounded=0;fontSize=14;fontStyle=1;fontColor=#006666;" vertex="1" parent="1">
                    <mxGeometry x="250" y="428" width="40" height="20" as="geometry"/>
                </mxCell>
                <mxCell id="13" value="string" style="text;html=1;strokeColor=none;fillColor=none;align=center;verticalAlign=middle;whiteSpace=wrap;rounded=0;fontSize=14;fontStyle=1;fontColor=#006666;" vertex="1" parent="1">
                    <mxGeometry x="410" y="428" width="40" height="20" as="geometry"/>
                </mxCell>
                <mxCell id="20" value="requiredAck" style="rounded=0;whiteSpace=wrap;html=1;fontSize=14;fillColor=#1ba1e2;strokeColor=#006EAF;fontColor=#ffffff;fontStyle=1" vertex="1" parent="1">
                    <mxGeometry x="510" y="450" width="100" height="60" as="geometry"/>
                </mxCell>
                <mxCell id="21" value="short" style="text;html=1;strokeColor=none;fillColor=none;align=center;verticalAlign=middle;whiteSpace=wrap;rounded=0;fontSize=14;fontStyle=1;fontColor=#006666;" vertex="1" parent="1">
                    <mxGeometry x="530" y="428" width="40" height="20" as="geometry"/>
                </mxCell>
                <mxCell id="24" value="ackTimeoutMs" style="rounded=0;whiteSpace=wrap;html=1;fontSize=14;fillColor=#d80073;strokeColor=#A50040;fontColor=#ffffff;fontStyle=1" vertex="1" parent="1">
                    <mxGeometry x="610" y="450" width="160" height="60" as="geometry"/>
                </mxCell>
                <mxCell id="25" value="int" style="text;html=1;strokeColor=none;fillColor=none;align=center;verticalAlign=middle;whiteSpace=wrap;rounded=0;fontSize=14;fontStyle=1;fontColor=#006666;" vertex="1" parent="1">
                    <mxGeometry x="670" y="428" width="40" height="20" as="geometry"/>
                </mxCell>
                <mxCell id="26" value="topicCount" style="rounded=0;whiteSpace=wrap;html=1;fontSize=14;fillColor=#e3c800;strokeColor=#B09500;fontColor=#ffffff;fontStyle=1" vertex="1" parent="1">
                    <mxGeometry x="770" y="450" width="160" height="60" as="geometry"/>
                </mxCell>
                <mxCell id="27" value="int" style="text;html=1;strokeColor=none;fillColor=none;align=center;verticalAlign=middle;whiteSpace=wrap;rounded=0;fontSize=14;fontStyle=1;fontColor=#006666;" vertex="1" parent="1">
                    <mxGeometry x="830" y="428" width="40" height="20" as="geometry"/>
                </mxCell>
                <mxCell id="28" value="topicName" style="rounded=0;whiteSpace=wrap;html=1;fillColor=#d5e8d4;strokeColor=#82b366;fontStyle=1" vertex="1" parent="1">
                    <mxGeometry x="630" y="640" width="100" height="50" as="geometry"/>
                </mxCell>
                <mxCell id="29" value="partitionCount" style="rounded=0;whiteSpace=wrap;html=1;fillColor=#fff2cc;strokeColor=#d6b656;fontStyle=1" vertex="1" parent="1">
                    <mxGeometry x="730" y="640" width="100" height="50" as="geometry"/>
                </mxCell>
                <mxCell id="30" value="partition1" style="rounded=0;whiteSpace=wrap;html=1;fillColor=#ffe6cc;strokeColor=#d79b00;fontStyle=1" vertex="1" parent="1">
                    <mxGeometry x="830" y="640" width="100" height="50" as="geometry"/>
                </mxCell>
                <mxCell id="31" value="partitionN" style="rounded=0;whiteSpace=wrap;html=1;fillColor=#ffe6cc;strokeColor=#d79b00;fontStyle=1" vertex="1" parent="1">
                    <mxGeometry x="1030" y="640" width="100" height="50" as="geometry"/>
                </mxCell>
                <mxCell id="32" value="......" style="rounded=0;whiteSpace=wrap;html=1;fillColor=#ffe6cc;strokeColor=#d79b00;fontStyle=1" vertex="1" parent="1">
                    <mxGeometry x="930" y="640" width="100" height="50" as="geometry"/>
                </mxCell>
                <mxCell id="33" value="partitionId" style="rounded=0;whiteSpace=wrap;html=1;fillColor=#dae8fc;strokeColor=#6c8ebf;fontStyle=1" vertex="1" parent="1">
                    <mxGeometry x="780" y="780" width="100" height="50" as="geometry"/>
                </mxCell>
                <mxCell id="34" value="messageSize" style="rounded=0;whiteSpace=wrap;html=1;fillColor=#dae8fc;strokeColor=#6c8ebf;fontStyle=1" vertex="1" parent="1">
                    <mxGeometry x="880" y="780" width="100" height="50" as="geometry"/>
                </mxCell>
                <mxCell id="35" value="messageBody" style="rounded=0;whiteSpace=wrap;html=1;fillColor=#dae8fc;strokeColor=#6c8ebf;fontStyle=1" vertex="1" parent="1">
                    <mxGeometry x="980" y="780" width="100" height="50" as="geometry"/>
                </mxCell>
                <mxCell id="36" value="" style="endArrow=none;dashed=1;html=1;exitX=0;exitY=0;exitDx=0;exitDy=0;entryX=1;entryY=1;entryDx=0;entryDy=0;" edge="1" parent="1" source="28" target="26">
                    <mxGeometry width="50" height="50" relative="1" as="geometry">
                        <mxPoint x="630" y="520" as="sourcePoint"/>
                        <mxPoint x="680" y="470" as="targetPoint"/>
                    </mxGeometry>
                </mxCell>
                <mxCell id="37" value="" style="endArrow=none;dashed=1;html=1;exitX=1;exitY=0;exitDx=0;exitDy=0;entryX=0;entryY=1;entryDx=0;entryDy=0;" edge="1" parent="1" source="31" target="8">
                    <mxGeometry width="50" height="50" relative="1" as="geometry">
                        <mxPoint x="630" y="520" as="sourcePoint"/>
                        <mxPoint x="680" y="470" as="targetPoint"/>
                    </mxGeometry>
                </mxCell>
                <mxCell id="38" value="" style="endArrow=none;dashed=1;html=1;exitX=0;exitY=0;exitDx=0;exitDy=0;entryX=0;entryY=1;entryDx=0;entryDy=0;" edge="1" parent="1" source="33" target="30">
                    <mxGeometry width="50" height="50" relative="1" as="geometry">
                        <mxPoint x="630" y="520" as="sourcePoint"/>
                        <mxPoint x="680" y="470" as="targetPoint"/>
                    </mxGeometry>
                </mxCell>
                <mxCell id="39" value="" style="endArrow=none;dashed=1;html=1;exitX=1;exitY=0;exitDx=0;exitDy=0;entryX=1;entryY=1;entryDx=0;entryDy=0;" edge="1" parent="1" source="35" target="30">
                    <mxGeometry width="50" height="50" relative="1" as="geometry">
                        <mxPoint x="630" y="520" as="sourcePoint"/>
                        <mxPoint x="680" y="470" as="targetPoint"/>
                    </mxGeometry>
                </mxCell>
                <mxCell id="40" value="string" style="text;html=1;strokeColor=none;fillColor=none;align=center;verticalAlign=middle;whiteSpace=wrap;rounded=0;fontSize=14;fontStyle=1;fontColor=#006666;" vertex="1" parent="1">
                    <mxGeometry x="660" y="620" width="40" height="20" as="geometry"/>
                </mxCell>
                <mxCell id="41" value="int" style="text;html=1;strokeColor=none;fillColor=none;align=center;verticalAlign=middle;whiteSpace=wrap;rounded=0;fontSize=14;fontStyle=1;fontColor=#006666;" vertex="1" parent="1">
                    <mxGeometry x="760" y="620" width="40" height="20" as="geometry"/>
                </mxCell>
                <mxCell id="42" value="int" style="text;html=1;strokeColor=none;fillColor=none;align=center;verticalAlign=middle;whiteSpace=wrap;rounded=0;fontSize=14;fontStyle=1;fontColor=#006666;" vertex="1" parent="1">
                    <mxGeometry x="810" y="760" width="40" height="20" as="geometry"/>
                </mxCell>
                <mxCell id="43" value="int" style="text;html=1;strokeColor=none;fillColor=none;align=center;verticalAlign=middle;whiteSpace=wrap;rounded=0;fontSize=14;fontStyle=1;fontColor=#006666;" vertex="1" parent="1">
                    <mxGeometry x="910" y="760" width="40" height="20" as="geometry"/>
                </mxCell>
                <mxCell id="45" value="bytes" style="text;html=1;strokeColor=none;fillColor=none;align=center;verticalAlign=middle;whiteSpace=wrap;rounded=0;fontSize=14;fontStyle=1;fontColor=#006666;" vertex="1" parent="1">
                    <mxGeometry x="1010" y="760" width="40" height="20" as="geometry"/>
                </mxCell>
                <mxCell id="46" value="ProducerRequest" style="text;html=1;strokeColor=none;fillColor=none;align=center;verticalAlign=middle;whiteSpace=wrap;rounded=0;fontSize=20;fontStyle=1" vertex="1" parent="1">
                    <mxGeometry x="500" y="370" width="280" height="20" as="geometry"/>
                </mxCell>
            </root>
        </mxGraphModel>
    </diagram>
</mxfile>